<?xml version="1.0" encoding="UTF-8"?>
<svg version="1.1" xmlns="http://www.w3.org/2000/svg" width="1600" height="1600">
<path d="M0 0 C528 0 1056 0 1600 0 C1600 528 1600 1056 1600 1600 C1072 1600 544 1600 0 1600 C0 1072 0 544 0 0 Z " fill="#FEFEFE" transform="translate(0,0)"/>
<path d="M0 0 C1.32609787 -0.00009064 1.32609787 -0.00009064 2.6789856 -0.00018311 C15.96533093 0.01273098 29.11198718 0.42230099 42.32617188 1.9140625 C44.62726486 2.17365397 46.92936528 2.40332498 49.234375 2.625 C66.89551944 4.40590466 84.23629733 8.32153861 101.43554688 12.61132812 C103.43898841 13.11007517 105.44577601 13.59534486 107.453125 14.078125 C143.38655769 23.10250307 179.03389676 38.02698576 210.75 57.1875 C211.48347656 57.63029297 212.21695313 58.07308594 212.97265625 58.52929688 C229.88905416 68.82316505 245.80143663 80.32900707 261.12158203 92.86328125 C262.57865131 94.04816038 264.05198496 95.21297338 265.52734375 96.375 C280.35163876 108.14526731 294.73951951 121.7747326 307.0234375 136.18359375 C308.96741046 138.43983386 310.98323518 140.62113893 313 142.8125 C318.58282754 149.01668778 323.70039715 155.54938286 328.75 162.1875 C329.30913086 162.92210449 329.86826172 163.65670898 330.44433594 164.41357422 C338.02708873 174.42540674 345.17483609 184.56723452 351.63378906 195.34033203 C352.68010149 197.07182805 353.75699623 198.78473934 354.8359375 200.49609375 C382.32344204 244.69068748 401.2267193 295.71663948 408.75 347.1875 C408.91097168 348.27063477 409.07194336 349.35376953 409.23779297 350.46972656 C409.79448069 354.24915759 410.33752558 358.03029037 410.875 361.8125 C411.04604248 363.00423828 411.21708496 364.19597656 411.39331055 365.42382812 C413.42767274 380.18893466 413.96055372 394.86992316 413.9375 409.75 C413.93623108 410.60020721 413.93496216 411.45041443 413.93365479 412.3263855 C413.70126237 494.72870251 390.91461791 578.44276432 342.75 646.1875 C341.98623047 647.271521 341.98623047 647.271521 341.20703125 648.37744141 C334.70613391 657.58640257 328.06660967 666.60383738 320.75 675.1875 C319.80591636 676.30592778 318.8619106 677.4244213 317.91796875 678.54296875 C315.39480086 681.52359369 312.83895156 684.47420518 310.27294922 687.41796875 C308.75146468 689.18579817 307.26731197 690.98039879 305.78515625 692.78125 C304.83681483 693.8965799 303.88763216 695.0111952 302.9375 696.125 C301.69033203 697.62353516 301.69033203 697.62353516 300.41796875 699.15234375 C297.75 701.1875 297.75 701.1875 294.3671875 701.1640625 C273.27053751 695.46842265 255.45810484 683.08311666 239.75 668.1875 C238.42355469 666.94033203 238.42355469 666.94033203 237.0703125 665.66796875 C229.86754418 658.69985152 223.750697 651.19127968 217.75 643.1875 C217.30156738 642.59453125 216.85313477 642.0015625 216.39111328 641.390625 C189.13740534 605.27480029 168.82949652 565.84328846 152.1875 523.875 C151.93758301 523.24730713 151.68766602 522.61961426 151.43017578 521.97290039 C142.73729784 500.06834179 135.20414917 477.70257192 127.42160034 455.46353149 C125.25220798 449.26521395 123.07965536 443.06800507 120.90625 436.87109375 C120.57753812 435.93380967 120.57753812 435.93380967 120.24218559 434.97759056 C115.57483541 421.67134578 110.8695785 408.37867583 106.15481567 395.08917236 C100.85893823 380.16069494 95.59296099 365.2219351 90.34255981 350.27740479 C63.42991553 264.91552922 63.42991553 264.91552922 20.75 187.1875 C20.29093262 186.56762207 19.83186523 185.94774414 19.35888672 185.30908203 C16.26985186 181.1705327 13.07350878 177.14005218 9.75 173.1875 C8.63818359 171.86492187 8.63818359 171.86492187 7.50390625 170.515625 C-3.88050028 158.1249711 -19.75106656 150.20276173 -35.25 144.1875 C-35.8476416 143.9311377 -36.4452832 143.67477539 -37.06103516 143.41064453 C-47.6462226 139.04626516 -58.88350137 138.79703914 -70.1875 138.8125 C-70.86430817 138.81304382 -71.54111633 138.81358765 -72.23843384 138.81414795 C-93.91583847 138.89376584 -115.61506772 143.68986285 -135.47265625 152.5234375 C-137.25 153.1875 -137.25 153.1875 -140.25 153.1875 C-139.59 154.8375 -138.93 156.4875 -138.25 158.1875 C-134.81934848 157.53933009 -131.48815995 156.72538255 -128.12890625 155.77734375 C-104.88045858 149.55384993 -80.75514528 147.32843481 -58.25 157.1875 C-57.14140625 157.64382813 -56.0328125 158.10015625 -54.890625 158.5703125 C-41.03556499 164.85175162 -19.26597298 180.65160852 -13.25 195.1875 C-13.78135596 198.97029698 -14.9738093 202.24146645 -16.4453125 205.75390625 C-16.90550781 206.85903564 -17.36570312 207.96416504 -17.83984375 209.1027832 C-18.59974609 210.90815552 -18.59974609 210.90815552 -19.375 212.75 C-19.91580491 214.04433108 -20.45615786 215.33885108 -20.99609375 216.63354492 C-22.15029872 219.39927305 -23.30708713 222.16390041 -24.46582031 224.92773438 C-26.21019175 229.08978514 -27.94612864 233.25531091 -29.6796875 237.421875 C-32.1422046 243.33951378 -34.60708203 249.25616065 -37.07421875 255.171875 C-40.05817101 262.32721742 -43.03950025 269.48364863 -46.01953125 276.640625 C-54.55788384 297.14505946 -63.10869404 317.64414705 -71.69058228 338.13040161 C-77.02819604 350.87230367 -82.35144096 363.62007364 -87.66012573 376.37405396 C-91.29283759 385.10090229 -94.93289214 393.82460997 -98.5859375 402.54296875 C-99.14178528 403.86956512 -99.14178528 403.86956512 -99.7088623 405.22296143 C-101.22813162 408.84861334 -102.74748492 412.47423005 -104.26696777 416.09979248 C-109.87792604 429.49035608 -115.45004448 442.89655165 -121 456.3125 C-126.56992318 469.77650638 -132.19918989 483.21273591 -137.92700195 496.61035156 C-141.23735141 504.36669909 -144.4716946 512.15045408 -147.65234375 519.9609375 C-148.41325328 521.8223303 -149.17432081 523.68365851 -149.93554688 525.54492188 C-151.04968977 528.26936624 -152.16032524 530.99492548 -153.25854492 533.72583008 C-161.3416373 553.82489191 -171.10868644 571.63650335 -191.89453125 580.79296875 C-200.04153838 583.91986868 -207.56383648 584.84665237 -216.25 584.1875 C-216.25 586.1675 -216.25 588.1475 -216.25 590.1875 C-176.98 590.1875 -137.71 590.1875 -97.25 590.1875 C-97.25 588.2075 -97.25 586.2275 -97.25 584.1875 C-98.0234375 584.23390625 -98.796875 584.2803125 -99.59375 584.328125 C-106.41610268 584.56454316 -111.71958604 584.45450043 -117.25 580.1875 C-123.00298989 574.73607813 -127.30107309 569.29127274 -127.7421875 561.171875 C-127.6438938 551.9001994 -123.80411958 543.68114635 -120.4375 535.1875 C-119.74030536 533.38575553 -119.04484968 531.58333725 -118.35107422 529.78027344 C-116.643541 525.3565489 -114.91376528 520.94200093 -113.17364502 516.53100586 C-111.9083719 513.32070873 -110.65554333 510.10565407 -109.40234375 506.890625 C-107.71233843 502.56685352 -106.00806144 498.24902069 -104.296875 493.93359375 C-101.77137362 487.54365494 -99.29560578 481.13520313 -96.828125 474.72265625 C-96.24766922 473.21507248 -96.24766922 473.21507248 -95.65548706 471.67703247 C-94.08861371 467.6065243 -92.52213979 463.53587381 -90.96075439 459.46325684 C-89.86931606 456.61656089 -88.77475195 453.77108386 -87.6796875 450.92578125 C-87.34793518 450.05744156 -87.01618286 449.18910187 -86.67437744 448.29444885 C-84.36347228 442.30097228 -84.36347228 442.30097228 -83.25 441.1875 C-81.14906175 441.09062965 -79.04480483 441.06563139 -76.94163513 441.06724548 C-76.27516167 441.06639106 -75.60868821 441.06553663 -74.92201859 441.06465632 C-72.67251366 441.06299965 -70.42308212 441.06852589 -68.17358398 441.07397461 C-66.56754559 441.07425647 -64.96150707 441.07409878 -63.35546875 441.0735321 C-58.98168933 441.07324407 -54.60793708 441.07914168 -50.234164 441.08610606 C-45.66840422 441.09233869 -41.10264387 441.09294333 -36.53688049 441.09413147 C-27.88478695 441.09724505 -19.23270597 441.10545881 -10.58061796 441.11548096 C-0.73314177 441.12664126 9.11433501 441.13215234 18.96181595 441.13717639 C39.224551 441.1476414 59.48727471 441.16524136 79.75 441.1875 C80.55292235 443.10165831 81.35453396 445.01636646 82.15559387 446.93130493 C82.60213223 447.99749872 83.0486706 449.06369251 83.50874043 450.16219521 C84.97297114 453.73094447 86.26823394 457.30933821 87.51171875 460.9609375 C87.74369965 461.63906494 87.97568054 462.31719238 88.21469116 463.01586914 C88.95951609 465.19677659 89.69851858 467.37960647 90.4375 469.5625 C90.96576337 471.11159359 91.49433314 472.66058273 92.02319336 474.20947266 C94.50872234 481.50237601 96.96455228 488.80435917 99.3671875 496.125 C125.06577571 574.36484504 162.19080831 663.17808236 239.10644531 703.703125 C251.7678539 710.07491724 265.07702353 714.55561562 278.75 718.1875 C274.9846696 722.78061541 271.10058346 726.91927235 266.5625 730.75 C265.96356934 731.25756836 265.36463867 731.76513672 264.74755859 732.28808594 C216.55731689 772.53837667 160.89831945 798.55910291 100.75 815.1875 C99.7798999 815.46142578 98.8097998 815.73535156 97.81030273 816.01757812 C91.89147604 817.67267184 85.97865235 819.05991269 79.9375 820.1875 C78.59353149 820.43959229 78.59353149 820.43959229 77.22241211 820.69677734 C70.77187921 821.87775816 64.30729804 822.90731809 57.8125 823.8125 C56.63820435 823.97878906 56.63820435 823.97878906 55.44018555 824.1484375 C37.35022878 826.5539883 19.30428938 827.62732293 1.0625 827.625 C-0.00572998 827.62639984 -1.07395996 827.62779968 -2.17456055 827.62924194 C-33.13838175 827.59631267 -64.05189907 824.11355914 -94.25 817.1875 C-96.17005859 816.74857422 -96.17005859 816.74857422 -98.12890625 816.30078125 C-101.08891727 815.55656915 -104.01793976 814.75190206 -106.94189453 813.87744141 C-108.71139665 813.3484999 -110.48376234 812.82913 -112.25732422 812.31396484 C-140.83535461 803.9826449 -167.7262082 792.60793743 -194.25 779.1875 C-195.10352051 778.75646973 -195.95704102 778.32543945 -196.83642578 777.88134766 C-207.03801468 772.65561362 -216.59056746 766.46436082 -226.125 760.125 C-226.69027405 759.74935913 -227.2555481 759.37371826 -227.83795166 758.98669434 C-238.73326829 751.72050199 -249.23474523 743.97430076 -259.375 735.6875 C-260.05240234 735.13562012 -260.72980469 734.58374023 -261.42773438 734.01513672 C-266.01207299 730.25785824 -270.48432926 726.40063684 -274.84375 722.3828125 C-276.86731032 720.53664221 -278.92146289 718.74485617 -280.99609375 716.95703125 C-285.45235207 713.0667624 -289.64228068 708.94286305 -293.8125 704.75 C-294.52857422 704.03779297 -295.24464844 703.32558594 -295.98242188 702.59179688 C-300.61207262 697.95372092 -304.97773245 693.15417734 -309.25 688.1875 C-310.28332191 687.01920834 -311.31843266 685.85249602 -312.35546875 684.6875 C-319.59484823 676.49456195 -326.3575414 668.05931879 -332.77929688 659.21142578 C-333.74654737 657.88033238 -334.71907069 656.55305183 -335.69726562 655.22998047 C-355.10594494 628.97311018 -371.49515501 599.65963103 -383.25 569.1875 C-383.6413916 568.1881543 -384.0327832 567.18880859 -384.43603516 566.15917969 C-390.35662037 550.96991035 -395.40292844 535.71262239 -399.51928711 519.93798828 C-399.9916608 518.15991878 -400.48340706 516.38683382 -400.99829102 514.62060547 C-403.40684901 506.29899458 -404.85182846 497.83790004 -406.3125 489.3125 C-406.57051488 487.83455702 -406.82897631 486.35669193 -407.08789062 484.87890625 C-407.71248087 481.30061693 -408.32094715 477.71985691 -408.92071533 474.1373291 C-409.22030963 472.3633088 -409.53116907 470.5912002 -409.84326172 468.81933594 C-412.91722138 450.53482102 -412.5288761 431.85827257 -412.5625 413.375 C-412.56379787 412.71312557 -412.56509575 412.05125114 -412.56643295 411.36931992 C-412.5989893 389.40954476 -411.81250366 367.88159584 -408.25 346.1875 C-408.06808105 345.06166504 -407.88616211 343.93583008 -407.69873047 342.77587891 C-400.45104264 299.58121389 -386.20615241 252.5988738 -362.59375 215.34375 C-361.11387615 212.96906871 -359.80910216 210.53524853 -358.5 208.0625 C-351.68989916 195.48864195 -343.72371829 183.68754625 -335.25 172.1875 C-334.17492187 170.71410156 -334.17492187 170.71410156 -333.078125 169.2109375 C-323.68428431 156.49154007 -313.68450994 144.33788141 -302.81542969 132.85449219 C-301.16521431 131.09721355 -299.53810535 129.32054285 -297.9140625 127.5390625 C-286.53321983 115.10032317 -274.45964232 103.67537536 -261.25 93.1875 C-260.13406094 92.26987541 -259.01955833 91.35050205 -257.90625 90.4296875 C-248.10660091 82.37373873 -237.85066523 75.14807081 -227.25 68.1875 C-226.36231934 67.60097656 -225.47463867 67.01445312 -224.56005859 66.41015625 C-166.03379274 27.99164399 -100.70070879 8.00109031 -31.25 1.1875 C-30.33202637 1.08961182 -29.41405273 0.99172363 -28.46826172 0.89086914 C-18.9909488 -0.0328022 -9.51285689 -0.00997376 0 0 Z " fill="#FEFEFE" transform="translate(799.25,385.8125)"/>
<path d="M0 0 C1.10375977 0.17370117 2.20751953 0.34740234 3.34472656 0.52636719 C22.05237314 3.50395966 39.95714876 8.35858247 58 14 C59.09505859 14.3393457 60.19011719 14.67869141 61.31835938 15.02832031 C130.63808488 36.68803517 190.82223387 76.93176373 242 127.875 C242.69391846 128.56424561 243.38783691 129.25349121 244.1027832 129.96362305 C248.60450064 134.47947119 252.85332834 139.15756101 257 144 C257.87758622 145.00913019 258.75518892 146.01824605 259.6328125 147.02734375 C293.77486397 186.89541326 321.0178574 232.65542118 339 282 C339.4021875 283.09860352 339.804375 284.19720703 340.21875 285.32910156 C350.81209232 314.65114205 358.15803214 345.05328203 362 376 C362.10892578 376.84916992 362.21785156 377.69833984 362.33007812 378.57324219 C362.98076774 383.70714234 363.57465134 388.8420772 364 394 C364.13136353 395.55243408 364.13136353 395.55243408 364.26538086 397.13623047 C365.15440493 409.17969124 365.18612901 421.21766484 365.18530273 433.28955078 C365.1874915 436.86112354 365.20571894 440.4323877 365.22460938 444.00390625 C365.25605863 456.83408945 364.73754983 469.29120652 363 482 C362.79086082 483.93672392 362.58808832 485.87415679 362.39453125 487.8125 C359.57649518 513.69522849 353.92616443 539.21695419 346 564 C345.67306152 565.0513916 345.34612305 566.1027832 345.00927734 567.18603516 C334.1168946 602.14815404 318.77858176 636.13276805 299 667 C298.44844238 667.86173828 297.89688477 668.72347656 297.32861328 669.61132812 C286.33353741 686.66997898 274.27654179 702.66255712 261 718 C259.77029474 719.43703929 258.54101773 720.87444537 257.3125 722.3125 C256.549375 723.199375 255.78625 724.08625 255 725 C256.41655793 725.0272415 257.83327045 725.04650467 259.25 725.0625 C260.43335938 725.07990234 260.43335938 725.07990234 261.640625 725.09765625 C263.96148322 725.08124438 263.96148322 725.08124438 266 724.5 C268.31448236 723.92137941 270.36802679 723.90247098 272.75 723.9375 C273.54921875 723.94652344 274.3484375 723.95554687 275.171875 723.96484375 C276.07679688 723.98224609 276.07679688 723.98224609 277 724 C277 725.98 277 727.96 277 730 C274.52435246 730.78390341 272.04544725 731.55229363 269.5625 732.3125 C268.79188232 732.55556885 268.02126465 732.7986377 267.22729492 733.04907227 C263.39435072 734.20632732 259.8741936 735.12764668 255.859375 735.2265625 C243.38160671 735.71970128 236.76669197 743.00649697 228.66137695 751.71264648 C226.91204375 753.61388661 225.16678282 755.51888338 223.42602539 757.42797852 C220.16063073 760.88988178 216.65224962 763.95805191 213 767 C212.02417969 767.85722656 211.04835938 768.71445313 210.04296875 769.59765625 C201.53227022 776.94410054 192.61142935 783.64036762 183.48828125 790.20605469 C181.85910477 791.38062187 180.23392825 792.56076201 178.61328125 793.74707031 C119.1468188 837.26570874 48.70564565 861.62920585 -23.90966797 870.73013306 C-25.94090918 870.99237123 -27.96699653 871.28098183 -29.99414062 871.57299805 C-43.38719593 873.39765112 -56.81314638 873.3405911 -70.30908203 873.31567383 C-73.00196163 873.31107158 -75.69438637 873.31786928 -78.38720703 873.33618164 C-102.32115006 873.48695816 -125.78782596 871.74839253 -149.375 867.625 C-151.24019287 867.30474854 -151.24019287 867.30474854 -153.14306641 866.97802734 C-181.30024887 862.03937856 -208.27086003 854.09382433 -235 844 C-235.76199707 843.71237793 -236.52399414 843.42475586 -237.30908203 843.12841797 C-274.82940685 828.83369644 -310.30937193 807.51944258 -342 783 C-343.12753284 782.14183336 -344.25514046 781.28376496 -345.3828125 780.42578125 C-352.55140162 774.92732193 -359.30540439 769.13095551 -365.8671875 762.921875 C-368.07848432 760.83167722 -370.34838523 758.83372867 -372.66015625 756.85546875 C-377.67609286 752.49040963 -382.35648105 747.79362115 -387.0456543 743.0847168 C-388.5599258 741.56508332 -390.0794743 740.05087483 -391.59960938 738.53710938 C-396.94332757 733.19731758 -402.11281359 727.76510458 -407 722 C-407.845625 721.03578125 -408.69125 720.0715625 -409.5625 719.078125 C-434.14018893 690.56170386 -454.12907935 658.57287214 -471 625 C-471.33837891 624.33258789 -471.67675781 623.66517578 -472.02539062 622.97753906 C-492.91160434 581.45538217 -505.05923656 534.94944354 -511 489 C-511.12455566 488.04303223 -511.24911133 487.08606445 -511.37744141 486.10009766 C-512.05358766 480.74201427 -512.5892925 475.38469503 -513 470 C-513.05639648 469.29311035 -513.11279297 468.5862207 -513.17089844 467.85791016 C-515.092806 442.44665301 -514.85137796 416.43300698 -512.30322266 391.08789062 C-511.99623789 387.96168831 -511.7365417 384.83386997 -511.48046875 381.703125 C-509.01767676 353.96475118 -502.45910226 326.49086066 -494 300 C-493.72865234 299.12601563 -493.45730469 298.25203125 -493.17773438 297.3515625 C-483.58375146 266.48595635 -469.91985433 236.53202512 -453 209 C-452.52208008 208.2172168 -452.04416016 207.43443359 -451.55175781 206.62792969 C-429.47299354 170.60621475 -402.375158 135.25013431 -370.03515625 107.7578125 C-367.59171962 105.6473586 -365.24081179 103.44707121 -362.875 101.25 C-356.52529821 95.46879768 -349.83692718 90.1906937 -343 85 C-342.4229834 84.56075195 -341.8459668 84.12150391 -341.25146484 83.66894531 C-324.31592322 70.84489499 -306.55630852 59.32674307 -288 49 C-287.07848145 48.48050781 -286.15696289 47.96101563 -285.20751953 47.42578125 C-247.83586873 26.39525161 -207.75472366 12.4062839 -166 3 C-164.71609375 2.70351563 -163.4321875 2.40703125 -162.109375 2.1015625 C-109.15927405 -9.35043608 -53.2551489 -8.715589 0 0 Z M-118 22 C-118.69977966 22.09001282 -119.39955933 22.18002563 -120.12054443 22.27276611 C-185.27396542 30.71944485 -247.23336053 51.09627363 -302 88 C-303.42295118 88.94174767 -304.84611715 89.8831709 -306.26953125 90.82421875 C-333.14338854 108.77371864 -357.74171306 130.41316229 -379.45849609 154.31005859 C-380.86257441 155.84934116 -382.28390921 157.37283799 -383.70703125 158.89453125 C-390.25250996 165.9347863 -396.19681694 173.34682132 -402 181 C-402.82854492 182.09175537 -402.82854492 182.09175537 -403.67382812 183.20556641 C-411.49242997 193.55538599 -418.90606027 204.08213316 -425.79345703 215.07470703 C-426.93592048 216.89774766 -428.08984593 218.71302692 -429.24609375 220.52734375 C-432.9734624 226.45308484 -436.33155178 232.42929949 -439.37890625 238.73046875 C-440.57433015 241.14148032 -441.80119018 243.50316292 -443.08984375 245.86328125 C-448.79252043 256.31386548 -453.62440327 266.9304861 -458 278 C-458.3609375 278.9060498 -458.721875 279.81209961 -459.09375 280.74560547 C-465.34944509 296.56132764 -470.45693916 312.6143843 -475 329 C-475.22026855 329.79374023 -475.44053711 330.58748047 -475.66748047 331.40527344 C-476.89868374 335.91241249 -477.98651684 340.43932577 -479 345 C-479.15919922 345.69963867 -479.31839844 346.39927734 -479.48242188 347.12011719 C-480.88042741 353.37850384 -481.98995899 359.66818633 -483 366 C-483.18626953 367.15193848 -483.37253906 368.30387695 -483.56445312 369.49072266 C-486.82218106 390.67975815 -487.35928053 411.78137526 -487.3125 433.1875 C-487.31004272 434.48809357 -487.30758545 435.78868713 -487.30505371 437.12869263 C-487.23623519 457.50653341 -486.60682853 477.26644369 -483.1875 497.375 C-482.91257408 499.02105995 -482.6377541 500.66713759 -482.36303711 502.31323242 C-473.77432682 553.39716408 -456.15211084 602.75544558 -429 647 C-428.54399414 647.75104004 -428.08798828 648.50208008 -427.61816406 649.27587891 C-417.60856461 665.71923944 -406.47092879 681.32450494 -394 696 C-393.09236424 697.08196106 -392.18481745 698.16399676 -391.27734375 699.24609375 C-377.31018882 715.80814987 -362.53793697 732.53251488 -345.50390625 745.99609375 C-343.12578393 747.89933361 -340.87397492 749.88444304 -338.625 751.9375 C-284.43971787 800.47449301 -209.59827625 833.14881707 -137.86767578 842.61279297 C-135.77273198 842.8956621 -133.68021759 843.19669198 -131.58935547 843.50830078 C-95.5020747 848.83540422 -58.11298851 849.39995541 -22 844 C-20.19560962 843.7556087 -18.39092833 843.51335389 -16.5859375 843.2734375 C-11.70753534 842.60593471 -6.85238654 841.83486298 -2 841 C-1.23977539 840.87044922 -0.47955078 840.74089844 0.30371094 840.60742188 C37.12420077 834.17277317 74.6890708 822.67822219 107.76708984 805.16064453 C110.35340233 803.81630498 112.96614226 802.53191425 115.58203125 801.24609375 C148.00592347 785.11951452 177.32568443 763.3862253 204 739 C201.59655602 736.59655602 200.35550482 736.50065949 197.0625 735.8125 C170.11229576 729.30838858 146.06822519 714.95332379 126 696 C124.73253971 694.93347854 123.46176736 693.87087909 122.1875 692.8125 C111.52169619 683.47992167 102.42727476 672.34623567 94 661 C93.52208008 660.35724121 93.04416016 659.71448242 92.55175781 659.05224609 C72.89650881 632.39392386 57.48467032 602.62050762 45 572 C44.56236328 570.93523438 44.12472656 569.87046875 43.67382812 568.7734375 C37.95196628 554.78125335 32.76299257 540.67823253 28.06396484 526.3112793 C24.54020028 515.5456044 20.86323922 504.83706212 17.13317871 494.1411438 C16.46785236 492.23319423 15.80352449 490.32489614 15.14025879 488.41622925 C14.2028303 485.7192963 13.26211495 483.02353321 12.3203125 480.328125 C12.04460419 479.53440994 11.76889587 478.74069489 11.48483276 477.92292786 C9.47789546 472.20082342 7.25774714 466.64436786 5 461 C-48.79 461 -102.58 461 -158 461 C-161.25917055 468.17017521 -164.33314429 475.21764208 -167.08203125 482.5703125 C-167.45361359 483.55421463 -167.82519592 484.53811676 -168.20803833 485.55183411 C-169.00183214 487.65418005 -169.7940946 489.75710475 -170.58493042 491.86056519 C-172.68113162 497.43492307 -174.7893851 503.00471266 -176.8984375 508.57421875 C-177.32452805 509.69979691 -177.75061859 510.82537506 -178.18962097 511.98506165 C-183.00720296 524.69020012 -187.9530965 537.34457913 -192.9230957 549.99072266 C-194.62524197 554.32335365 -196.31617791 558.66021923 -198 563 C-198.43062744 564.1034375 -198.86125488 565.206875 -199.30493164 566.34375 C-202.1405335 573.81651323 -203.7982715 580.67148123 -201.15234375 588.51171875 C-197.98083792 594.84397953 -192.98840275 599.99587722 -186.64453125 603.18359375 C-183.53440687 604.14373555 -180.93604802 604.19639666 -177.6875 604.125 C-176.08455078 604.09792969 -176.08455078 604.09792969 -174.44921875 604.0703125 C-173.64097656 604.04710937 -172.83273437 604.02390625 -172 604 C-172 605.98 -172 607.96 -172 610 C-211.27 610 -250.54 610 -291 610 C-291 608.02 -291 606.04 -291 604 C-289.85337891 604.08701172 -289.85337891 604.08701172 -288.68359375 604.17578125 C-272.60853825 604.85282932 -259.12578009 598.57994031 -247.3125 587.875 C-238.93531981 578.66502472 -233.54841794 567.58607763 -228.99697876 556.13186646 C-227.76732439 553.03739624 -226.50587617 549.95612247 -225.24757385 546.87321472 C-224.56919489 545.20983504 -223.89249359 543.54577026 -223.21739197 541.88105774 C-219.42459081 532.53779152 -215.4853373 523.25725413 -211.54733276 513.9744873 C-205.5388766 499.8053232 -199.56981859 485.62123094 -193.70410156 471.39233398 C-188.8521629 459.62463443 -183.95881886 447.87429222 -179.0625 436.125 C-178.62629333 435.07819061 -178.19008667 434.03138123 -177.74066162 432.95285034 C-172.05918289 419.32017495 -166.36279052 405.69390573 -160.64501953 392.07641602 C-156.7279186 382.74449908 -152.82869656 373.40524345 -148.9375 364.0625 C-148.63118652 363.32705963 -148.32487305 362.59161926 -148.00927734 361.83389282 C-146.03422643 357.09160095 -144.05966779 352.34910418 -142.08520508 347.60656738 C-138.45337756 338.88323633 -134.82091148 330.16017143 -131.1875 321.4375 C-130.76521118 320.4237027 -130.34292236 319.4099054 -129.90783691 318.36538696 C-124.22161782 304.7158349 -118.52333191 291.07140205 -112.81060791 277.43292236 C-111.69917661 274.77789353 -110.58934087 272.1222033 -109.47998047 269.46630859 C-106.21640605 261.65643186 -102.94340066 253.85127166 -99.62059021 246.06637573 C-98.1840655 242.69787922 -96.75578729 239.32591957 -95.32852173 235.95349121 C-94.65768392 234.37481699 -93.98277262 232.79786678 -93.30355835 231.22277832 C-92.37574422 229.07067018 -91.46180787 226.91316267 -90.55078125 224.75390625 C-90.03169189 223.54033447 -89.51260254 222.3267627 -88.9777832 221.07641602 C-88.01004962 218.0316193 -87.74756345 216.87032072 -89 214 C-99.89826994 197.37707703 -116.78190282 183.63130947 -135 176 C-136.14726563 175.51273438 -137.29453125 175.02546875 -138.4765625 174.5234375 C-159.79590668 166.45480112 -184.21998785 170.3239781 -205.52172852 176.33569336 C-208.00046243 177.00012396 -210.47900404 177.5236958 -213 178 C-213.66 176.35 -214.32 174.7 -215 173 C-214.35933594 172.90203125 -213.71867187 172.8040625 -213.05859375 172.703125 C-209.76257836 171.94542031 -206.73098192 170.85161882 -203.56518555 169.67626953 C-185.4832979 162.98397788 -167.19805892 158.81241376 -147.88647461 158.81469727 C-145.83490836 158.81252374 -143.78389247 158.79436063 -141.73242188 158.77539062 C-129.79155412 158.72091224 -119.17435986 160.00502752 -108.125 164.625 C-107.267854 164.97691406 -106.41070801 165.32882812 -105.52758789 165.69140625 C-82.21176097 175.49849371 -65.45371951 190.50485927 -51 211 C-50.5992627 211.5667041 -50.19852539 212.1334082 -49.78564453 212.71728516 C-20.012298 255.43331855 -5.71554676 309.74058294 11.27041626 358.34814453 C15.33514628 369.9728721 19.443829 381.58179603 23.5625 393.1875 C29.21594805 409.12547247 34.85069461 425.06990756 40.46374512 441.02215576 C41.27743001 443.33460357 42.09131242 445.64698189 42.90539551 447.95928955 C46.89799007 459.30026589 50.88385129 470.64330742 54.8203125 482.00390625 C76.54448476 544.66309658 100.35697403 605.19875047 140 659 C140.39606445 659.54027832 140.79212891 660.08055664 141.20019531 660.63720703 C147.16821543 668.73940651 153.61422124 676.24347714 160.57568359 683.50830078 C161.88269138 684.87714164 163.17084669 686.26391877 164.45703125 687.65234375 C177.49519717 701.33917464 194.10630507 711.80217438 211.6875 718.625 C212.3467749 718.88514893 213.0060498 719.14529785 213.68530273 719.41333008 C217.48540132 720.79790781 220.15730572 721.41678467 224 720 C229.42515613 716.04312007 233.52293368 709.99243245 237.69140625 704.8046875 C239.82039988 702.21819439 242.03052686 699.76366102 244.3125 697.3125 C259.33329668 680.75578131 271.89618074 661.34839263 283 642 C283.37656738 641.35369629 283.75313477 640.70739258 284.14111328 640.04150391 C327.68046349 565.13645646 347.89040753 474.34430396 337 388 C336.87641113 386.96037109 336.75282227 385.92074219 336.62548828 384.84960938 C329.18941274 323.30594418 308.46419846 262.90198991 274.31054688 210.9921875 C273.15910819 209.24186342 272.02356641 207.4811033 270.890625 205.71875 C259.10876218 187.60778732 245.42659356 170.53067218 230.625 154.80859375 C228.56126089 152.60051575 226.5754474 150.36890405 224.625 148.0625 C216.83199112 139.06320228 208.12332991 130.6369447 199 123 C198.08476563 122.20722656 197.16953125 121.41445313 196.2265625 120.59765625 C187.44334933 113.01322736 178.31702796 105.91521173 169 99 C167.98728027 98.24783203 167.98728027 98.24783203 166.95410156 97.48046875 C127.68141924 68.53667371 82.53204241 47.27249722 35.45263672 34.66308594 C33.06728162 34.01819001 30.69176631 33.34473584 28.31640625 32.6640625 C16.43085855 29.32039189 4.44574486 27.23461672 -7.7578125 25.40136719 C-10 25 -10 25 -13 24 C-15.15202731 23.72505872 -17.30945163 23.49159442 -19.46875 23.28125 C-20.76296875 23.15363281 -22.0571875 23.02601563 -23.390625 22.89453125 C-24.76041194 22.76297164 -26.13020364 22.6314615 -27.5 22.5 C-28.83857205 22.36879921 -30.17711409 22.23729179 -31.515625 22.10546875 C-34.1443573 21.84831016 -36.77351268 21.5954392 -39.40307617 21.34692383 C-41.51930225 21.14281351 -43.63465887 20.92842957 -45.74731445 20.69018555 C-54.86918022 19.7056845 -64.02362185 19.79914714 -73.1875 19.8125 C-74.52880981 19.81440338 -74.52880981 19.81440338 -75.8972168 19.81634521 C-90.0276941 19.85452035 -103.96945325 20.18585799 -118 22 Z " fill="#020202" transform="translate(874,366)"/>
<path d="M0 0 C0.66 0 1.32 0 2 0 C22.00440971 40.1205759 34.45967468 84.23795059 48.76513672 126.62548828 C49.1133271 127.65717573 49.1133271 127.65717573 49.46855164 128.70970535 C49.70006424 129.3956918 49.93157684 130.08167824 50.17010498 130.78845215 C50.40086479 131.47220413 50.6316246 132.15595612 50.86937714 132.86042786 C51.33343571 134.23547078 51.79747081 135.61052162 52.26148224 136.98558044 C55.47649779 146.51141329 58.71085209 156.03036525 61.96484375 165.54296875 C62.34545456 166.65646698 62.72606537 167.76996521 63.11820984 168.91720581 C64.88496647 174.08506478 66.65477612 179.25184457 68.42944336 184.41699219 C69.04423645 186.2141488 69.65890914 188.0113466 70.2734375 189.80859375 C70.55352158 190.619832 70.83360565 191.43107025 71.12217712 192.26689148 C73 197.77285152 73 197.77285152 73 200 C23.5 200 -26 200 -77 200 C-75.10078655 193.66928849 -73.19300081 187.60424377 -70.76953125 181.49609375 C-70.46252289 180.71267105 -70.15551453 179.92924835 -69.83920288 179.12208557 C-68.83392146 176.55911873 -67.82316857 173.99834668 -66.8125 171.4375 C-66.09437965 169.6088921 -65.37669615 167.78011258 -64.65942383 165.95117188 C-63.17343949 162.16321846 -61.68560081 158.37600184 -60.19628906 154.58935547 C-57.1710138 146.89446053 -54.16388258 139.19250089 -51.15884399 131.48968506 C-50.17618594 128.97100054 -49.19296611 126.45253578 -48.2097168 123.93408203 C-42.59281498 109.54234484 -37.01114837 95.13701899 -31.431427 80.73083496 C-24.61760767 63.14100454 -17.75914437 45.56892621 -10.87353516 28.00708008 C-7.21840055 18.68292532 -3.5756442 9.3550087 0 0 Z " fill="#FDFDFD" transform="translate(800,609)"/>
</svg>
